<svg width="14" height="14" viewBox="0 0 14 14" fill="none" xmlns="http://www.w3.org/2000/svg">
<path fill-rule="evenodd" clip-rule="evenodd" d="M5.63645 8.36355C7.11629 9.84339 9.51559 9.84339 10.9954 8.36355C12.4753 6.88371 12.4753 4.48441 10.9954 3.00457C9.51559 1.52473 7.11629 1.52473 5.63645 3.00457C4.15661 4.48441 4.15661 6.88371 5.63645 8.36355ZM4.29671 9.70329C6.51647 11.9231 10.1154 11.9231 12.3352 9.70329C14.5549 7.48353 14.5549 3.88458 12.3352 1.66482C10.1154 -0.554941 6.51647 -0.554941 4.29671 1.66482C2.07694 3.88458 2.07694 7.48353 4.29671 9.70329Z" fill="#313133"/>
<path fill-rule="evenodd" clip-rule="evenodd" d="M0.27747 13.7225C-0.0924901 13.3526 -0.0924901 12.7527 0.27747 12.3828L4.29671 8.36355C4.66667 7.99359 5.26649 7.99359 5.63645 8.36355C6.00641 8.73351 6.00641 9.33333 5.63645 9.70329L1.61722 13.7225C1.24726 14.0925 0.647431 14.0925 0.27747 13.7225Z" fill="#313133"/>
</svg>
